<svg xmlns="http://www.w3.org/2000/svg" width="643.050164072379" height="155.5088632070459" viewBox="0 0 765 185" version="1.1"><path d="M 172.572 25.101 C 108.685 31.834, 57.518 84.881, 53.308 148.750 L 52.698 158 69.202 158 L 85.706 158 86.284 148.750 C 86.914 138.678, 90.254 125.807, 94.892 115.579 C 105.846 91.419, 128.404 71.223, 154.300 62.391 C 162.480 59.601, 176.150 57, 182.631 57 L 187 57 187 40.500 L 187 24 183.750 24.133 C 181.963 24.206, 176.932 24.642, 172.572 25.101 M 53.004 32.250 C 53.009 38.612, 55.466 54.462, 57.616 62 C 59.828 69.754, 65.014 83.006, 65.823 82.968 C 66.195 82.951, 68.481 79.998, 70.902 76.407 C 73.323 72.816, 78.444 66.515, 82.282 62.405 L 89.260 54.933 87.629 46.716 C 86.732 42.197, 85.999 35.913, 85.999 32.750 L 86 27 69.500 27 L 53 27 53.004 32.250 M 236.237 92.250 L 236.500 126.500 246.500 126.500 L 256.500 126.500 256.786 117.341 L 257.073 108.181 261.286 104.770 C 267.591 99.666, 267.444 99.662, 270.901 104.997 C 279.207 117.814, 297.941 128, 313.210 128 L 318 128 318 119.178 L 318 110.355 311.015 109.274 C 307.173 108.679, 301.886 107.156, 299.265 105.889 C 294.097 103.391, 286.545 96.295, 283.750 91.312 L 282 88.191 299.750 74.011 C 309.512 66.212, 317.650 59.419, 317.833 58.915 C 318.024 58.391, 312.620 58, 305.198 58 L 292.228 58 274.864 71.579 L 257.500 85.159 257.222 71.579 L 256.944 58 246.459 58 L 235.974 58 236.237 92.250 M 333 92.500 L 333 127 343 127 L 353 127 353 113 L 353 99 368.472 99 L 383.944 99 384.222 112.750 L 384.500 126.500 394.250 126.786 L 404 127.072 404 92.536 L 404 58 394 58 L 384 58 384 71.500 L 384 85 368.500 85 L 353 85 353 71.500 L 353 58 343 58 L 333 58 333 92.500 M 431.016 90.750 C 422.632 108.763, 415.546 124.287, 415.269 125.250 C 414.813 126.837, 415.741 127, 425.247 127 L 435.727 127 438.397 121.050 L 441.067 115.100 456.139 114.800 L 471.210 114.500 474.042 120.750 L 476.875 127 487.437 127 C 493.247 127, 498 126.608, 498 126.130 C 498 125.413, 474.731 74.724, 468.446 61.750 L 466.630 58 456.445 58 L 446.260 58 431.016 90.750 M 509.237 92.158 L 509.500 126.500 532.500 126.435 C 553.917 126.374, 555.895 126.215, 561.247 124.114 C 568.414 121.301, 577.216 113.415, 580.804 106.592 C 583.129 102.171, 583.483 100.314, 583.491 92.500 C 583.499 84.961, 583.103 82.693, 581.052 78.526 C 577.644 71.599, 571.089 65.411, 563.201 61.674 L 556.500 58.500 532.737 58.158 L 508.974 57.815 509.237 92.158 M 595.237 92.250 L 595.500 126.500 605.750 126.785 L 616 127.070 616 92.535 L 616 58 605.487 58 L 594.974 58 595.237 92.250 M 630 92.500 L 630 127 639.480 127 L 648.959 127 649.230 106.372 L 649.500 85.745 660.166 97.852 L 670.833 109.959 681.166 98.310 L 691.500 86.660 692 106.580 L 692.500 126.500 702.250 126.786 L 712 127.072 712 92.536 L 712 58 703.147 58 L 694.294 58 682.923 71 C 676.669 78.150, 671.230 84, 670.835 84 C 670.441 84, 665.029 78.156, 658.809 71.013 L 647.500 58.027 638.750 58.013 L 630 58 630 92.500 M 529.792 92.614 L 530.083 112.229 539.792 111.831 C 547.784 111.502, 550.268 110.998, 553.848 108.977 C 559.596 105.731, 563.101 99.771, 563.152 93.153 C 563.200 86.939, 562.436 84.392, 559.250 80.141 C 555.303 74.876, 550.104 73.048, 539 73.021 L 529.500 72.998 529.792 92.614 M 455.124 82.111 C 454.611 83.425, 452.798 87.579, 451.096 91.343 C 449.393 95.107, 448 98.594, 448 99.093 C 448 99.592, 451.825 100, 456.500 100 C 461.175 100, 465 99.798, 465 99.550 C 465 98.856, 457.072 80.739, 456.532 80.199 C 456.270 79.937, 455.636 80.798, 455.124 82.111 M 109.142 106.971 C 102.745 116.668, 98.458 126.642, 99.927 128.412 C 102.373 131.359, 117.610 141.474, 126.166 145.830 C 142.962 154.381, 164.379 160, 180.176 160 L 187 160 187 144.129 L 187 128.258 178.783 127.541 C 167.857 126.588, 154.001 122.985, 144.654 118.666 C 136.207 114.764, 123.950 106.645, 119.513 102.013 C 117.925 100.356, 116.125 99, 115.513 99 C 114.901 99, 112.034 102.587, 109.142 106.971" stroke="none" fill="#ffffff" fill-rule="evenodd"/><path d="M 0 92.501 L 0 185.003 382.750 184.751 L 765.500 184.500 765.755 92.250 L 766.010 0 383.005 0 L 0 0 0 92.501 M 0.480 93 C 0.480 143.875, 0.601 164.687, 0.750 139.250 C 0.898 113.812, 0.898 72.187, 0.750 46.750 C 0.601 21.312, 0.480 42.125, 0.480 93 M 172.572 25.101 C 108.685 31.834, 57.518 84.881, 53.308 148.750 L 52.698 158 69.202 158 L 85.706 158 86.284 148.750 C 86.914 138.678, 90.254 125.807, 94.892 115.579 C 105.846 91.419, 128.404 71.223, 154.300 62.391 C 162.480 59.601, 176.150 57, 182.631 57 L 187 57 187 40.500 L 187 24 183.750 24.133 C 181.963 24.206, 176.932 24.642, 172.572 25.101 M 53.004 32.250 C 53.009 38.612, 55.466 54.462, 57.616 62 C 59.828 69.754, 65.014 83.006, 65.823 82.968 C 66.195 82.951, 68.481 79.998, 70.902 76.407 C 73.323 72.816, 78.444 66.515, 82.282 62.405 L 89.260 54.933 87.629 46.716 C 86.732 42.197, 85.999 35.913, 85.999 32.750 L 86 27 69.500 27 L 53 27 53.004 32.250 M 236.237 92.250 L 236.500 126.500 246.500 126.500 L 256.500 126.500 256.786 117.341 L 257.073 108.181 261.286 104.770 C 267.591 99.666, 267.444 99.662, 270.901 104.997 C 279.207 117.814, 297.941 128, 313.210 128 L 318 128 318 119.178 L 318 110.355 311.015 109.274 C 307.173 108.679, 301.886 107.156, 299.265 105.889 C 294.097 103.391, 286.545 96.295, 283.750 91.312 L 282 88.191 299.750 74.011 C 309.512 66.212, 317.650 59.419, 317.833 58.915 C 318.024 58.391, 312.620 58, 305.198 58 L 292.228 58 274.864 71.579 L 257.500 85.159 257.222 71.579 L 256.944 58 246.459 58 L 235.974 58 236.237 92.250 M 333 92.500 L 333 127 343 127 L 353 127 353 113 L 353 99 368.472 99 L 383.944 99 384.222 112.750 L 384.500 126.500 394.250 126.786 L 404 127.072 404 92.536 L 404 58 394 58 L 384 58 384 71.500 L 384 85 368.500 85 L 353 85 353 71.500 L 353 58 343 58 L 333 58 333 92.500 M 431.016 90.750 C 422.632 108.763, 415.546 124.287, 415.269 125.250 C 414.813 126.837, 415.741 127, 425.247 127 L 435.727 127 438.397 121.050 L 441.067 115.100 456.139 114.800 L 471.210 114.500 474.042 120.750 L 476.875 127 487.437 127 C 493.247 127, 498 126.608, 498 126.130 C 498 125.413, 474.731 74.724, 468.446 61.750 L 466.630 58 456.445 58 L 446.260 58 431.016 90.750 M 509.237 92.158 L 509.500 126.500 532.500 126.435 C 553.917 126.374, 555.895 126.215, 561.247 124.114 C 568.414 121.301, 577.216 113.415, 580.804 106.592 C 583.129 102.171, 583.483 100.314, 583.491 92.500 C 583.499 84.961, 583.103 82.693, 581.052 78.526 C 577.644 71.599, 571.089 65.411, 563.201 61.674 L 556.500 58.500 532.737 58.158 L 508.974 57.815 509.237 92.158 M 595.237 92.250 L 595.500 126.500 605.750 126.785 L 616 127.070 616 92.535 L 616 58 605.487 58 L 594.974 58 595.237 92.250 M 630 92.500 L 630 127 639.480 127 L 648.959 127 649.230 106.372 L 649.500 85.745 660.166 97.852 L 670.833 109.959 681.166 98.310 L 691.500 86.660 692 106.580 L 692.500 126.500 702.250 126.786 L 712 127.072 712 92.536 L 712 58 703.147 58 L 694.294 58 682.923 71 C 676.669 78.150, 671.230 84, 670.835 84 C 670.441 84, 665.029 78.156, 658.809 71.013 L 647.500 58.027 638.750 58.013 L 630 58 630 92.500 M 529.792 92.614 L 530.083 112.229 539.792 111.831 C 547.784 111.502, 550.268 110.998, 553.848 108.977 C 559.596 105.731, 563.101 99.771, 563.152 93.153 C 563.200 86.939, 562.436 84.392, 559.250 80.141 C 555.303 74.876, 550.104 73.048, 539 73.021 L 529.500 72.998 529.792 92.614 M 455.124 82.111 C 454.611 83.425, 452.798 87.579, 451.096 91.343 C 449.393 95.107, 448 98.594, 448 99.093 C 448 99.592, 451.825 100, 456.500 100 C 461.175 100, 465 99.798, 465 99.550 C 465 98.856, 457.072 80.739, 456.532 80.199 C 456.270 79.937, 455.636 80.798, 455.124 82.111 M 109.142 106.971 C 102.745 116.668, 98.458 126.642, 99.927 128.412 C 102.373 131.359, 117.610 141.474, 126.166 145.830 C 142.962 154.381, 164.379 160, 180.176 160 L 187 160 187 144.129 L 187 128.258 178.783 127.541 C 167.857 126.588, 154.001 122.985, 144.654 118.666 C 136.207 114.764, 123.950 106.645, 119.513 102.013 C 117.925 100.356, 116.125 99, 115.513 99 C 114.901 99, 112.034 102.587, 109.142 106.971" stroke="none" fill="#ec1b24" fill-rule="evenodd"/></svg>