<svg id="Layer_1" data-name="Layer 1" xmlns="http://www.w3.org/2000/svg" viewBox="0 0 638 249.22"><defs><style>.cls-1{fill-rule:evenodd;}</style></defs><title>Reebok Logo Vector</title><path class="cls-1" d="M495.84,396.21l36.08,22.21,57.6-21.51c19.44-6.25,44.42-13.19,74.26-21.52-73.56,6.25-129.08,12.49-167.94,20.82Z" transform="translate(-181 -375.39)"/><path class="cls-1" d="M468.08,419.81l-31.93-8.33a198.36,198.36,0,0,0-51.35,22.21c-16,9.71-28.46,20.82-36.79,32.62h54.14c4.16-6.25,11.1-13.19,20.12-20.13,13.19-11.1,28.46-19.43,45.81-26.37Z" transform="translate(-181 -375.39)"/><path class="cls-1" d="M506.25,433l-27.07-9a131,131,0,0,0-22.9,12.49A170.61,170.61,0,0,0,423,466.31h50.66c6.94-11.11,18-22.21,32.62-33.32Z" transform="translate(-181 -375.39)"/><path class="cls-1" d="M444.48,375.39H336.22l108.26,29.15a1343.78,1343.78,0,0,1,133.25,48.58L444.48,375.39Z" transform="translate(-181 -375.39)"/><path class="cls-1" d="M669.36,572.17c-10.12,0-18.33-7.57-18.33-16.92s8.21-16.91,18.33-16.91,18.32,7.57,18.32,16.91-8.2,16.92-18.32,16.92M723.11,598V488h35.43v48.47h4.88c10-.12,19.24-9.26,21.37-22.12H819v4.24c.23,15.24-13.31,23.71-22.91,30.25,15.34.39,18.42,15.14,18.33,25.37V598H782V576.53c-.24-7.35-5.48-14.55-13.89-14.81H757.28V598Zm-53.75.85c-27.15,0-49.17-19.52-49.17-43.6s22-43.59,49.17-43.59,49.17,19.52,49.17,43.59S696.51,598.85,669.36,598.85ZM513,598h56.44c61-3.53,47.3-85.77,8.61-86.21H552.7v24.4h16.8c18,.87,16.7,33.45-.61,32.86h-22V484.14H513Zm-12.29,0H444.83c-45.71-2.38-52.63-75.91-4.58-84.91h62.3v21.8l-16.42,30.3H455.21l15.13-27.92H450.63c-19.44,1.59-17.51,32.79-2.44,33.08h52.53Zm-102.48,0H342.35c-45.71-2.38-52.63-75.91-4.58-84.91h62.3v21.8l-16.42,30.3H352.73l15.13-27.92H348.15c-19.44,1.59-17.51,32.79-2.44,33.08h52.53Zm-184.34-1.52H181v-112h74.38C297.5,488,312,535.88,276.13,562.64c8.55,4,17.09,20.71,17.89,27.82v34.15H261.47V588.45c0-6.66-7.44-16.23-14.58-16.57h-25V548.26h28.82c16.17.07,22.44-35,0-35.64H213.88Z" transform="translate(-181 -375.39)"/></svg>